<svg xmlns="http://www.w3.org/2000/svg" viewBox="0 0 512 512" width="512" height="512">
  <defs>
    <linearGradient id="bg" x1="0%" y1="0%" x2="100%" y2="100%">
      <stop offset="0%" stop-color="#0a0420"/><stop offset="50%" stop-color="#1a0838"/><stop offset="100%" stop-color="#0c0628"/>
    </linearGradient>
    <radialGradient id="g1" cx="50%" cy="45%" r="40%">
      <stop offset="0%" stop-color="#ec4899" stop-opacity="0.2"/><stop offset="100%" stop-color="transparent"/>
    </radialGradient>
    <filter id="glow"><feGaussianBlur stdDeviation="4"/></filter>
  </defs>
  <rect width="512" height="512" fill="url(#bg)"/>
  <rect width="512" height="512" fill="url(#g1)"/>
  <g transform="translate(256,240)" fill="none" opacity="0.3">
    <polygon points="0,-100 87,-50 87,50 0,100 -87,50 -87,-50" stroke="#ec4899" stroke-width="2"/>
    <polygon points="0,-65 56,-33 56,33 0,65 -56,33 -56,-33" stroke="#8B5CF6" stroke-width="1.5"/>
    <polygon points="0,-30 26,-15 26,15 0,30 -26,15 -26,-15" stroke="#00E5FF" stroke-width="1"/>
  </g>
  <circle cx="256" cy="240" r="8" fill="#ec4899" opacity="0.4" filter="url(#glow)"/>
  <circle cx="256" cy="240" r="3" fill="#fff" opacity="0.8"/>
  <g fill="#fff" opacity="0.3"><circle cx="100" cy="80" r="1"/><circle cx="400" cy="100" r="1.2"/><circle cx="120" cy="420" r="1"/><circle cx="380" cy="440" r="1"/></g>
</svg>
